<svg version="1.1" xmlns="http://www.w3.org/2000/svg" xmlns:xlink="http://www.w3.org/1999/xlink" width="604" height="428"><defs/><g><g transform="translate(-94,-102) scale(1,1)"><path fill="none" stroke="#000000" d="M 104 112 L 688 112 L 688 520 L 104 520 L 104 112" stroke-miterlimit="10"/></g><g transform="translate(-94,-102) scale(1,1)"><path fill="#ffffff" stroke="none" d="M 104 112 L 104 134 L 227.6689453125 134 L 238.6689453125 123 L 238.6689453125 112 L 104 112"/></g><g transform="translate(-94,-102) scale(1,1)"><path fill="none" stroke="#000000" d="M 104 112 L 104 134 L 227.6689453125 134 L 238.6689453125 123 L 238.6689453125 112 L 104 112 L 104 112" stroke-miterlimit="10"/></g><g transform="translate(-94,-102) scale(1,1)"><g><path fill="none" stroke="none"/><text fill="#000000" stroke="none" font-family="Arial" font-size="13px" font-style="normal" font-weight="normal" text-decoration="none" x="167.03173828125" y="129.5">Recetario</text></g></g><g transform="translate(-94,-102) scale(1,1)"><g><path fill="none" stroke="none"/><text fill="#000000" stroke="none" font-family="Arial" font-size="13px" font-style="normal" font-weight="bold" text-decoration="none" x="109" y="129.5">use case</text></g></g><g transform="translate(-94,-102) scale(1,1)"><rect fill="#C0C0C0" stroke="none" x="447" y="287" width="216" height="224" opacity="0.2"/></g><g transform="translate(-94,-102) scale(1,1)"><rect fill="#ffffff" stroke="none" x="440" y="280" width="216" height="224"/></g><g transform="translate(-94,-102) scale(1,1)"><path fill="none" stroke="#000000" d="M 440 280 L 656 280 L 656 504 L 440 504 L 440 280 Z Z" stroke-miterlimit="10"/></g><g transform="translate(-94,-102) scale(1,1)"><g><path fill="none" stroke="none"/><text fill="#000000" stroke="none" font-family="Arial" font-size="13px" font-style="normal" font-weight="bold" text-decoration="none" x="524.155029296875" y="299.5">Recetas</text></g></g><g transform="translate(-94,-102) scale(1,1)"><rect fill="#C0C0C0" stroke="none" x="279" y="143" width="200" height="120" opacity="0.2"/></g><g transform="translate(-94,-102) scale(1,1)"><rect fill="#ffffff" stroke="none" x="272" y="136" width="200" height="120"/></g><g transform="translate(-94,-102) scale(1,1)"><path fill="none" stroke="#000000" d="M 272 136 L 472 136 L 472 256 L 272 256 L 272 136 Z Z" stroke-miterlimit="10"/></g><g transform="translate(-94,-102) scale(1,1)"><g><path fill="none" stroke="none"/><text fill="#000000" stroke="none" font-family="Arial" font-size="13px" font-style="normal" font-weight="bold" text-decoration="none" x="344.175048828125" y="155.5">Ahorcado</text></g></g><g transform="translate(-94,-102) scale(1,1)"><rect fill="#C0C0C0" stroke="none" x="135" y="303" width="159" height="168" opacity="0.2"/></g><g transform="translate(-94,-102) scale(1,1)"><rect fill="#ffffff" stroke="none" x="128" y="296" width="159" height="168"/></g><g transform="translate(-94,-102) scale(1,1)"><path fill="none" stroke="#000000" d="M 128 296 L 287 296 L 287 464 L 128 464 L 128 296 Z Z" stroke-miterlimit="10"/></g><g transform="translate(-94,-102) scale(1,1)"><g><path fill="none" stroke="none"/><text fill="#000000" stroke="none" font-family="Arial" font-size="13px" font-style="normal" font-weight="bold" text-decoration="none" x="180.760498046875" y="315.5">Sesiones</text></g></g><g transform="translate(-94,-102) scale(1,1)"><path fill="#ffffff" stroke="none" d="M 340.02116672585225 345.68 C 340.02116672585225 340.886167936 343.90700905079774 337 348.700439453125 337 C 353.49386985545226 337 357.37971218039775 340.886167936 357.37971218039775 345.68 C 357.37971218039775 350.473832064 353.49386985545226 354.36 348.700439453125 354.36 C 343.90700905079774 354.36 340.02116672585225 350.473832064 340.02116672585225 345.68 Z"/></g><g transform="translate(-94,-102) scale(1,1)"><path fill="none" stroke="#000000" d="M 340.02116672585225 345.68 C 340.02116672585225 340.886167936 343.90700905079774 337 348.700439453125 337 C 353.49386985545226 337 357.37971218039775 340.886167936 357.37971218039775 345.68 C 357.37971218039775 350.473832064 353.49386985545226 354.36 348.700439453125 354.36 C 343.90700905079774 354.36 340.02116672585225 350.473832064 340.02116672585225 345.68 Z" stroke-miterlimit="10"/></g><g transform="translate(-94,-102) scale(1,1)"><path fill="none" stroke="#000000" d="M 348.700439453125 354.36 L 348.700439453125 371.64" stroke-miterlimit="10"/></g><g transform="translate(-94,-102) scale(1,1)"><path fill="none" stroke="#000000" d="M 339.51062127130683 360.84 L 357.89025763494317 360.84" stroke-miterlimit="10"/></g><g transform="translate(-94,-102) scale(1,1)"><path fill="none" stroke="#000000" d="M 348.700439453125 371.64 L 335.93680308948865 389" stroke-miterlimit="10"/></g><g transform="translate(-94,-102) scale(1,1)"><path fill="none" stroke="#000000" d="M 348.700439453125 371.64 L 361.46407581676135 389" stroke-miterlimit="10"/></g><g transform="translate(-94,-102) scale(1,1)"><g><path fill="none" stroke="none"/><text fill="#000000" stroke="none" font-family="Arial" font-size="13px" font-style="normal" font-weight="bold" text-decoration="none" x="326.302734375" y="409.5">Usuario</text></g></g><g transform="translate(-94,-102) scale(1,1)"><path fill="#C0C0C0" stroke="none" d="M 463 345 C 463 330.6405952 481.1324656 319 503.5 319 C 525.8675344 319 544 330.6405952 544 345 C 544 359.3594048 525.8675344 371 503.5 371 C 481.1324656 371 463 359.3594048 463 345 Z" opacity="0.2"/></g><g transform="translate(-94,-102) scale(1,1)"><path fill="#ffffff" stroke="none" d="M 456 338 C 456 323.6405952 474.1324656 312 496.5 312 C 518.8675344 312 537 323.6405952 537 338 C 537 352.3594048 518.8675344 364 496.5 364 C 474.1324656 364 456 352.3594048 456 338 Z"/></g><g transform="translate(-94,-102) scale(1,1)"><path fill="none" stroke="#000000" d="M 456 338 C 456 323.6405952 474.1324656 312 496.5 312 C 518.8675344 312 537 323.6405952 537 338 C 537 352.3594048 518.8675344 364 496.5 364 C 474.1324656 364 456 352.3594048 456 338 Z" stroke-miterlimit="10"/></g><g transform="translate(-94,-102) scale(1,1)"><g><path fill="none" stroke="none"/><text fill="#000000" stroke="none" font-family="Arial" font-size="13px" font-style="normal" font-weight="bold" text-decoration="none" x="474.832275390625" y="338.5">Escribir</text><text fill="#000000" stroke="none" font-family="Arial" font-size="13px" font-style="normal" font-weight="bold" text-decoration="none" x="478.4345703125" y="351.5">receta</text></g></g><g transform="translate(-94,-102) scale(1,1)"><path fill="#C0C0C0" stroke="none" d="M 567 457 C 567 442.6405952 584.2370352 431 605.5 431 C 626.7629648 431 644 442.6405952 644 457 C 644 471.3594048 626.7629648 483 605.5 483 C 584.2370352 483 567 471.3594048 567 457 Z" opacity="0.2"/></g><g transform="translate(-94,-102) scale(1,1)"><path fill="#ffffff" stroke="none" d="M 560 450 C 560 435.6405952 577.2370352 424 598.5 424 C 619.7629648 424 637 435.6405952 637 450 C 637 464.3594048 619.7629648 476 598.5 476 C 577.2370352 476 560 464.3594048 560 450 Z"/></g><g transform="translate(-94,-102) scale(1,1)"><path fill="none" stroke="#000000" d="M 560 450 C 560 435.6405952 577.2370352 424 598.5 424 C 619.7629648 424 637 435.6405952 637 450 C 637 464.3594048 619.7629648 476 598.5 476 C 577.2370352 476 560 464.3594048 560 450 Z" stroke-miterlimit="10"/></g><g transform="translate(-94,-102) scale(1,1)"><g><path fill="none" stroke="none"/><text fill="#000000" stroke="none" font-family="Arial" font-size="13px" font-style="normal" font-weight="bold" text-decoration="none" x="588.74365234375" y="450.5">Ver</text><text fill="#000000" stroke="none" font-family="Arial" font-size="13px" font-style="normal" font-weight="bold" text-decoration="none" x="577.1845703125" y="463.5">recetas</text></g></g><g transform="translate(-94,-102) scale(1,1)"><path fill="#C0C0C0" stroke="none" d="M 551 385 C 551 370.6405952 572.0426144 359 598 359 C 623.9573856 359 645 370.6405952 645 385 C 645 399.3594048 623.9573856 411 598 411 C 572.0426144 411 551 399.3594048 551 385 Z" opacity="0.2"/></g><g transform="translate(-94,-102) scale(1,1)"><path fill="#ffffff" stroke="none" d="M 544 378 C 544 363.6405952 565.0426144 352 591 352 C 616.9573856 352 638 363.6405952 638 378 C 638 392.3594048 616.9573856 404 591 404 C 565.0426144 404 544 392.3594048 544 378 Z"/></g><g transform="translate(-94,-102) scale(1,1)"><path fill="none" stroke="#000000" d="M 544 378 C 544 363.6405952 565.0426144 352 591 352 C 616.9573856 352 638 363.6405952 638 378 C 638 392.3594048 616.9573856 404 591 404 C 565.0426144 404 544 392.3594048 544 378 Z" stroke-miterlimit="10"/></g><g transform="translate(-94,-102) scale(1,1)"><g><path fill="none" stroke="none"/><text fill="#000000" stroke="none" font-family="Arial" font-size="13px" font-style="normal" font-weight="bold" text-decoration="none" x="564.6318359375" y="378.5">Modificar</text><text fill="#000000" stroke="none" font-family="Arial" font-size="13px" font-style="normal" font-weight="bold" text-decoration="none" x="572.9345703125" y="391.5">receta</text></g></g><g transform="translate(-94,-102) scale(1,1)"><path fill="#C0C0C0" stroke="none" d="M 471 473 C 471 458.6405952 490.027896 447 513.5 447 C 536.972104 447 556 458.6405952 556 473 C 556 487.3594048 536.972104 499 513.5 499 C 490.027896 499 471 487.3594048 471 473 Z" opacity="0.2"/></g><g transform="translate(-94,-102) scale(1,1)"><path fill="#ffffff" stroke="none" d="M 464 466 C 464 451.6405952 483.027896 440 506.5 440 C 529.972104 440 549 451.6405952 549 466 C 549 480.3594048 529.972104 492 506.5 492 C 483.027896 492 464 480.3594048 464 466 Z"/></g><g transform="translate(-94,-102) scale(1,1)"><path fill="none" stroke="#000000" d="M 464 466 C 464 451.6405952 483.027896 440 506.5 440 C 529.972104 440 549 451.6405952 549 466 C 549 480.3594048 529.972104 492 506.5 492 C 483.027896 492 464 480.3594048 464 466 Z" stroke-miterlimit="10"/></g><g transform="translate(-94,-102) scale(1,1)"><g><path fill="none" stroke="none"/><text fill="#000000" stroke="none" font-family="Arial" font-size="13px" font-style="normal" font-weight="bold" text-decoration="none" x="483.023193359375" y="466.5">Eliminar</text><text fill="#000000" stroke="none" font-family="Arial" font-size="13px" font-style="normal" font-weight="bold" text-decoration="none" x="488.4345703125" y="479.5">receta</text></g></g><g transform="translate(-94,-102) scale(1,1)"><path fill="#C0C0C0" stroke="none" d="M 295 232 C 295 222.6111584 310.4461744 215 329.5 215 C 348.5538256 215 364 222.6111584 364 232 C 364 241.3888416 348.5538256 249 329.5 249 C 310.4461744 249 295 241.3888416 295 232 Z" opacity="0.2"/></g><g transform="translate(-94,-102) scale(1,1)"><path fill="#ffffff" stroke="none" d="M 288 225 C 288 215.6111584 303.4461744 208 322.5 208 C 341.5538256 208 357 215.6111584 357 225 C 357 234.3888416 341.5538256 242 322.5 242 C 303.4461744 242 288 234.3888416 288 225 Z"/></g><g transform="translate(-94,-102) scale(1,1)"><path fill="none" stroke="#000000" d="M 288 225 C 288 215.6111584 303.4461744 208 322.5 208 C 341.5538256 208 357 215.6111584 357 225 C 357 234.3888416 341.5538256 242 322.5 242 C 303.4461744 242 288 234.3888416 288 225 Z" stroke-miterlimit="10"/></g><g transform="translate(-94,-102) scale(1,1)"><g><path fill="none" stroke="none"/><text fill="#000000" stroke="none" font-family="Arial" font-size="13px" font-style="normal" font-weight="bold" text-decoration="none" x="306.240478515625" y="232">Jugar</text></g></g><g transform="translate(-94,-102) scale(1,1)"><path fill="#C0C0C0" stroke="none" d="M 175 369 C 175 354.6405952 190.8938896 343 210.5 343 C 230.1061104 343 246 354.6405952 246 369 C 246 383.3594048 230.1061104 395 210.5 395 C 190.8938896 395 175 383.3594048 175 369 Z" opacity="0.2"/></g><g transform="translate(-94,-102) scale(1,1)"><path fill="#ffffff" stroke="none" d="M 168 362 C 168 347.6405952 183.8938896 336 203.5 336 C 223.1061104 336 239 347.6405952 239 362 C 239 376.3594048 223.1061104 388 203.5 388 C 183.8938896 388 168 376.3594048 168 362 Z"/></g><g transform="translate(-94,-102) scale(1,1)"><path fill="none" stroke="#000000" d="M 168 362 C 168 347.6405952 183.8938896 336 203.5 336 C 223.1061104 336 239 347.6405952 239 362 C 239 376.3594048 223.1061104 388 203.5 388 C 183.8938896 388 168 376.3594048 168 362 Z" stroke-miterlimit="10"/></g><g transform="translate(-94,-102) scale(1,1)"><g><path fill="none" stroke="none"/><text fill="#000000" stroke="none" font-family="Arial" font-size="13px" font-style="normal" font-weight="bold" text-decoration="none" x="186.161376953125" y="362.5">Iniciar</text><text fill="#000000" stroke="none" font-family="Arial" font-size="13px" font-style="normal" font-weight="bold" text-decoration="none" x="184.7109375" y="375.5">sesión</text></g></g><g transform="translate(-94,-102) scale(1,1)"><path fill="none" stroke="#000000" d="M 319 372 L 240 365" stroke-miterlimit="10"/></g><g transform="translate(-94,-102) scale(1,1)"><path fill="none" stroke="#000000" d="M 325 243 L 341 335" stroke-miterlimit="10"/></g><g transform="translate(-94,-102) scale(1,1)"><path fill="none" stroke="#000000" d="M 378 393 L 463 441" stroke-miterlimit="10"/></g><g transform="translate(-94,-102) scale(1,1)"><path fill="none" stroke="#000000" d="M 559 438 L 378 384" stroke-miterlimit="10"/></g><g transform="translate(-94,-102) scale(1,1)"><path fill="none" stroke="#000000" d="M 378 375 L 543 377" stroke-miterlimit="10"/></g><g transform="translate(-94,-102) scale(1,1)"><path fill="none" stroke="#000000" d="M 455 348 L 378 367" stroke-miterlimit="10"/></g><g transform="translate(-94,-102) scale(1,1)"><path fill="#C0C0C0" stroke="none" d="M 351 201 C 351 186.6405952 376.0720512 175 407 175 C 437.9279488 175 463 186.6405952 463 201 C 463 215.3594048 437.9279488 227 407 227 C 376.0720512 227 351 215.3594048 351 201 Z" opacity="0.2"/></g><g transform="translate(-94,-102) scale(1,1)"><path fill="#ffffff" stroke="none" d="M 344 194 C 344 179.6405952 369.0720512 168 400 168 C 430.9279488 168 456 179.6405952 456 194 C 456 208.3594048 430.9279488 220 400 220 C 369.0720512 220 344 208.3594048 344 194 Z"/></g><g transform="translate(-94,-102) scale(1,1)"><path fill="none" stroke="#000000" d="M 344 194 C 344 179.6405952 369.0720512 168 400 168 C 430.9279488 168 456 179.6405952 456 194 C 456 208.3594048 430.9279488 220 400 220 C 369.0720512 220 344 208.3594048 344 194 Z" stroke-miterlimit="10"/></g><g transform="translate(-94,-102) scale(1,1)"><g><path fill="none" stroke="none"/><text fill="#000000" stroke="none" font-family="Arial" font-size="13px" font-style="normal" font-weight="bold" text-decoration="none" x="376.155029296875" y="194.5">Guardar</text><text fill="#000000" stroke="none" font-family="Arial" font-size="13px" font-style="normal" font-weight="bold" text-decoration="none" x="368.195068359375" y="207.5">puntuación</text></g></g><g transform="translate(-94,-102) scale(1,1)"><path fill="none" stroke="#000000" d="M 359 335 L 392 221" stroke-miterlimit="10"/></g><g transform="translate(-94,-102) scale(1,1)"><path fill="#C0C0C0" stroke="none" d="M 151 432 C 151 422.6111584 176.5197664 415 208 415 C 239.4802336 415 265 422.6111584 265 432 C 265 441.3888416 239.4802336 449 208 449 C 176.5197664 449 151 441.3888416 151 432 Z" opacity="0.2"/></g><g transform="translate(-94,-102) scale(1,1)"><path fill="#ffffff" stroke="none" d="M 144 425 C 144 415.6111584 169.5197664 408 201 408 C 232.4802336 408 258 415.6111584 258 425 C 258 434.3888416 232.4802336 442 201 442 C 169.5197664 442 144 434.3888416 144 425 Z"/></g><g transform="translate(-94,-102) scale(1,1)"><path fill="none" stroke="#000000" d="M 144 425 C 144 415.6111584 169.5197664 408 201 408 C 232.4802336 408 258 415.6111584 258 425 C 258 434.3888416 232.4802336 442 201 442 C 169.5197664 442 144 434.3888416 144 425 Z" stroke-miterlimit="10"/></g><g transform="translate(-94,-102) scale(1,1)"><g><path fill="none" stroke="none"/><text fill="#000000" stroke="none" font-family="Arial" font-size="13px" font-style="normal" font-weight="bold" text-decoration="none" x="167.766845703125" y="432">Registrarse</text></g></g><g transform="translate(-94,-102) scale(1,1)"><path fill="none" stroke="#000000" d="M 254 407 L 319 385" stroke-miterlimit="10"/></g></g></svg>