<svg xmlns="http://www.w3.org/2000/svg" xmlns:xlink="http://www.w3.org/1999/xlink" xmlns:lucid="lucid" width="800" height="680"><g transform="translate(-380 -280)" lucid:page-tab-id="0_0"><path d="M800 300h160v100H800z" stroke="#000" stroke-width="2" fill="#fff"/><use xlink:href="#a" transform="matrix(1,0,0,1,805,305) translate(37.32444444444444 51.906666666666666)"/><path d="M640 480h160v100H640z" stroke="#000" stroke-width="2" fill="#fff"/><use xlink:href="#b" transform="matrix(1,0,0,1,645,485) translate(33.388888888888886 36.35111111111111)"/><use xlink:href="#c" transform="matrix(1,0,0,1,645,485) translate(36.18888888888888 67.46222222222222)"/><path d="M960 480h160v100H960z" stroke="#000" stroke-width="2" fill="#fff"/><use xlink:href="#d" transform="matrix(1,0,0,1,965,485) translate(19.186666666666667 36.35111111111111)"/><use xlink:href="#e" transform="matrix(1,0,0,1,965,485) translate(7.955555555555534 67.46222222222222)"/><use xlink:href="#f" transform="matrix(1,0,0,1,965,485) translate(46.50222222222221 67.46222222222222)"/><path d="M880 401v39H720v20.5" stroke="#000" stroke-width="2" fill="none"/><path d="M881 401h-2v-1h2z"/><path d="M720 475.76l-4.64-14.26h9.28z" stroke="#000" stroke-width="2"/><path d="M880 401v39h160v20.5" stroke="#000" stroke-width="2" fill="none"/><path d="M881 401h-2v-1h2z"/><path d="M1040 475.76l-4.64-14.26h9.28z" stroke="#000" stroke-width="2"/><path d="M959 530H819.5" stroke="#000" stroke-width="2" fill="none"/><path d="M960 531h-1v-2h1z"/><path d="M804.24 530l14.26-4.64v9.28z" stroke="#000" stroke-width="2"/><path d="M800 660h160v100H800z" stroke="#000" stroke-width="2" fill="#fff"/><use xlink:href="#g" transform="matrix(1,0,0,1,805,665) translate(5.217777777777769 51.906666666666666)"/><use xlink:href="#h" transform="matrix(1,0,0,1,805,665) translate(57.76444444444444 51.906666666666666)"/><path d="M600 840h160v100H600z" stroke="#000" stroke-width="2" fill="#fff"/><use xlink:href="#i" transform="matrix(1,0,0,1,605,845) translate(24.599999999999994 36.35111111111111)"/><use xlink:href="#j" transform="matrix(1,0,0,1,605,845) translate(36.95111111111111 67.46222222222222)"/><path d="M720 581v39h160v20.5" stroke="#000" stroke-width="2" fill="none"/><path d="M721 581h-2v-1h2z"/><path d="M880 655.76l-4.64-14.26h9.28z" stroke="#000" stroke-width="2"/><path d="M400 660h160v100H400z" stroke="#000" stroke-width="2" fill="#fff"/><use xlink:href="#k" transform="matrix(1,0,0,1,405,665) translate(41.53999999999999 36.35111111111111)"/><use xlink:href="#l" transform="matrix(1,0,0,1,405,665) translate(16.40222222222222 67.46222222222222)"/><path d="M720 581v39H480v20.5" stroke="#000" stroke-width="2" fill="none"/><path d="M721 581h-2v-1h2z"/><path d="M480 655.76l-4.64-14.26h9.28z" stroke="#000" stroke-width="2"/><path d="M1000 840h160v100h-160z" stroke="#000" stroke-width="2" fill="#fff"/><use xlink:href="#m" transform="matrix(1,0,0,1,1005,845) translate(11.113333333333316 36.35111111111111)"/><use xlink:href="#n" transform="matrix(1,0,0,1,1005,845) translate(36.95111111111111 67.46222222222222)"/><path d="M800 840h160v100H800z" stroke="#000" stroke-width="2" fill="#fff"/><use xlink:href="#o" transform="matrix(1,0,0,1,805,845) translate(18.26888888888888 36.35111111111111)"/><use xlink:href="#n" transform="matrix(1,0,0,1,805,845) translate(36.95111111111111 67.46222222222222)"/><path d="M880 761v39H680v20.5" stroke="#000" stroke-width="2" fill="none"/><path d="M881 761h-2v-1h2z"/><path d="M680 835.76l-4.64-14.26h9.28z" stroke="#000" stroke-width="2"/><path d="M880 761v59.5" stroke="#000" stroke-width="2" fill="none"/><path d="M881 761h-2v-1h2z"/><path d="M880 835.76l-4.64-14.26h9.28z" stroke="#000" stroke-width="2"/><path d="M880 761v39h200v20.5" stroke="#000" stroke-width="2" fill="none"/><path d="M881 761h-2v-1h2z"/><path d="M1080 835.76l-4.64-14.26h9.28z" stroke="#000" stroke-width="2"/><path d="M400 840h160v100H400z" stroke="#000" stroke-width="2" fill="#fff"/><g><use xlink:href="#p" transform="matrix(1,0,0,1,405,845) translate(20.259999999999998 51.906666666666666)"/></g><path d="M480 761v59.5" stroke="#000" stroke-width="2" fill="none"/><path d="M481 761h-2v-1h2z"/><path d="M480 835.76l-4.64-14.26h9.28z" stroke="#000" stroke-width="2"/><defs><path d="M47 0v-20c71-4 80-21 80-115v-397c0-94-9-111-80-115v-20h260v20c-37-1-62 6-75 21-14 15-16 29-16 94v397c0 75 1 78 16 94 13 15 38 22 75 21V0H47" id="q"/><path d="M313-387c-24-9-119 47-142 64v189c0 81 1 80 10 94 10 15 27 20 62 20V0H28v-20c24 1 47-9 59-23 23-29 13-170 13-231 0-106 10-71-69-100v-16l124-46h16v93c77-55 147-87 189-87 146 0 113 207 103 365-2 38 28 47 84 45V0H316v-20c46-4 61-12 70-36 8-21 14-117 14-209 0-77-24-117-87-122" id="r"/><path d="M136-604c-28 0-47-17-47-42 0-23 20-40 47-40s47 17 47 41-20 41-47 41zM18-20c77-11 89-9 89-105v-179c0-56 0-55-56-67l-27-6v-17l139-48h15v317c0 62 1 68 13 83 12 14 26 19 64 22V0H18v-20" id="s"/><path d="M226 13C114 13 41-85 40-194c0-134 111-243 247-243 67 0 120 27 120 61 0 18-14 32-32 32-33 10-87-78-125-66-74 0-138 89-138 191 0 108 64 188 151 188 53 0 89-21 131-77l16 9C366-27 301 13 226 13" id="t"/><path d="M274 13C149 13 40-81 40-214c0-125 100-222 230-222 131 0 232 98 232 226C502-85 402 13 274 13zM120-244c0 128 74 232 166 232 78 0 136-74 136-172 0-123-76-227-166-227-78 0-136 71-136 167" id="u"/><g id="a"><use transform="matrix(0.031111111111111114,0,0,0.031111111111111114,0,0)" xlink:href="#q"/><use transform="matrix(0.031111111111111114,0,0,0.031111111111111114,10.64,0)" xlink:href="#r"/><use transform="matrix(0.031111111111111114,0,0,0.031111111111111114,28.124444444444446,0)" xlink:href="#s"/><use transform="matrix(0.031111111111111114,0,0,0.031111111111111114,36.36888888888889,0)" xlink:href="#t"/><use transform="matrix(0.031111111111111114,0,0,0.031111111111111114,50.33777777777778,0)" xlink:href="#s"/><use transform="matrix(0.031111111111111114,0,0,0.031111111111111114,58.488888888888894,0)" xlink:href="#u"/></g><path d="M255-52c-39 28-89 75-129 65-56 0-95-36-95-88 0-54 33-80 126-105 41-11 68-23 96-41v-85c7-65-33-99-79-99-38 0-82 36-60 72l-73 36c-23-58 109-139 155-139 43 0 88 24 112 56 34 46 3 251 20 323 3 12 12 18 25 18 16 0 29-6 52-23l5 15c-40 36-83 60-106 60-30 0-47-23-49-65zm-92 27c14 8 60-30 90-47v-128c-19 11-32 17-93 42-43 18-60 38-60 70 0 35 28 63 63 63" id="v"/><path d="M246-368c-33 0-65 69-75 81v153c0 81 0 81 10 94 8 24 62 20 101 20V0H29v-20c23 1 46-9 58-23 11-14 13-25 13-90v-216l-71-26v-18l121-43h21v113c33-45 66-139 141-98 9 5 32 10 55 16l-26 65c-22 0-70-28-95-28" id="w"/><g id="b"><use transform="matrix(0.031111111111111114,0,0,0.031111111111111114,0,0)" xlink:href="#q"/><use transform="matrix(0.031111111111111114,0,0,0.031111111111111114,10.64,0)" xlink:href="#r"/><use transform="matrix(0.031111111111111114,0,0,0.031111111111111114,28.124444444444446,0)" xlink:href="#s"/><use transform="matrix(0.031111111111111114,0,0,0.031111111111111114,36.36888888888889,0)" xlink:href="#t"/><use transform="matrix(0.031111111111111114,0,0,0.031111111111111114,50.33777777777778,0)" xlink:href="#s"/><use transform="matrix(0.031111111111111114,0,0,0.031111111111111114,59.20444444444445,0)" xlink:href="#v"/><use transform="matrix(0.031111111111111114,0,0,0.031111111111111114,72.08444444444444,0)" xlink:href="#w"/></g><path d="M177 13c-22 0-50-8-77-15-8 0-12 4-17 14H66L55-108h17C80-46 120-6 173-6c42 0 76-32 76-72 0-36-26-67-98-115-82-55-97-74-97-122 0-103 127-148 223-105l3 99h-19c-9-55-42-90-85-90-37 0-66 27-66 61 0 35 18 55 84 97 73 46 116 60 116 144 0 69-58 122-133 122" id="x"/><path d="M418-98C381-53 308 13 227 13 122 13 40-83 40-207c0-115 76-230 209-230 86 0 128 35 154 107 7 19 24 23 21 50H111C88-151 163-39 270-40c54 0 95-22 136-71zM114-300h220c-11-70-54-116-108-116-53 0-93 41-112 116" id="y"/><path d="M168-524l138-180h119L184-524h-16zM274 13C149 13 40-81 40-214c0-125 100-222 230-222 131 0 232 98 232 226C502-85 402 13 274 13zM120-244c0 128 74 232 166 232 78 0 136-74 136-172 0-123-76-227-166-227-78 0-136 71-136 167" id="z"/><g id="c"><use transform="matrix(0.031111111111111114,0,0,0.031111111111111114,0,0)" xlink:href="#x"/><use transform="matrix(0.031111111111111114,0,0,0.031111111111111114,10.702222222222224,0)" xlink:href="#y"/><use transform="matrix(0.031111111111111114,0,0,0.031111111111111114,24.826666666666668,0)" xlink:href="#x"/><use transform="matrix(0.031111111111111114,0,0,0.031111111111111114,35.52888888888889,0)" xlink:href="#s"/><use transform="matrix(0.031111111111111114,0,0,0.031111111111111114,43.68000000000001,0)" xlink:href="#z"/><use transform="matrix(0.031111111111111114,0,0,0.031111111111111114,60.137777777777785,0)" xlink:href="#r"/></g><path d="M22 0v-20c40 2 75-4 89-21s16-18 16-94v-398c0-63-4-80-16-94-13-16-40-21-88-20v-20c242-13 557-52 557 180 0 81-54 148-141 175 51 40 74 62 175 165C710-49 773-12 856-7v19c-79 2-157-5-199-25-40-19-68-41-158-131-75-74-129-123-155-139-44 3-82 5-128 1 5 61-13 221 16 241 13 19 54 23 95 21V0H22zm194-302c160 19 263-33 263-177 0-137-104-194-263-176v353" id="A"/><path d="M21 149C7 99 127 41 136 16 45 10-15-79 88-113c34-11 44-18 55-26-66-24-103-72-103-133 0-92 82-164 188-164 49 0 91 15 120 42 50-1 85-3 141-11v67c-41-2-85-7-107-13 67 133-62 252-220 218 1 9-64 28-64 55 0 17 19 25 63 32 34 5 224-1 254 24 37 14 64 54 64 95 0 112-160 177-291 177-99 0-167-41-167-101zm204-295c62 0 104-51 104-127 0-83-48-144-114-144-61 0-104 48-104 116 0 90 47 155 114 155zM157 20c3 9-69 54-69 91 0 56 76 108 157 108 94 0 178-60 178-126 0-32-19-54-56-62 32-4-184-6-210-11" id="B"/><path d="M103-41C88-65 87-77 87-154v-224H38v-17c40-19 81-73 102-136h18v106h153l-17 47H158v199c0 77 2 91 16 109 41 51 89 42 121-21l17 15C277 22 157 46 103-41" id="C"/><g id="d"><use transform="matrix(0.031111111111111114,0,0,0.031111111111111114,0,0)" xlink:href="#A"/><use transform="matrix(0.031111111111111114,0,0,0.031111111111111114,25.511111111111113,0)" xlink:href="#y"/><use transform="matrix(0.031111111111111114,0,0,0.031111111111111114,39.760000000000005,0)" xlink:href="#B"/><use transform="matrix(0.031111111111111114,0,0,0.031111111111111114,54.848888888888894,0)" xlink:href="#s"/><use transform="matrix(0.031111111111111114,0,0,0.031111111111111114,63.52888888888889,0)" xlink:href="#x"/><use transform="matrix(0.031111111111111114,0,0,0.031111111111111114,73.95111111111112,0)" xlink:href="#C"/><use transform="matrix(0.031111111111111114,0,0,0.031111111111111114,83.87555555555556,0)" xlink:href="#w"/><use transform="matrix(0.031111111111111114,0,0,0.031111111111111114,94.76444444444445,0)" xlink:href="#u"/></g><path d="M450-117c0 86 20 68 78 54v22L392 13h-13v-77c-72 51-129 77-169 77-94 0-171-93-171-208 0-171 171-287 340-216v-183c0-56-1-56-43-61l-36-4v-18l137-44h13v604zM110-226c0 107 62 192 140 192 33 0 84-20 129-51v-237c-40-57-79-81-131-81-80 0-138 74-138 177" id="D"/><g id="e"><use transform="matrix(0.031111111111111114,0,0,0.031111111111111114,0,0)" xlink:href="#D"/><use transform="matrix(0.031111111111111114,0,0,0.031111111111111114,16.520000000000003,0)" xlink:href="#y"/></g><path d="M203 13C132 13 90-27 90-126v-210c7-38-30-46-67-54v-16l138-30v251c0 75 0 90 16 109 57 67 140 38 209-22v-199c0-55-1-62-7-72-7-12-9-14-55-21l-32-5v-15l165-26v359c-3 51 38 30 72 27v19L386 13v-87c-78 57-141 87-183 87" id="E"/><g id="f"><use transform="matrix(0.031111111111111114,0,0,0.031111111111111114,0,0)" xlink:href="#E"/><use transform="matrix(0.031111111111111114,0,0,0.031111111111111114,17.204444444444448,0)" xlink:href="#x"/><use transform="matrix(0.031111111111111114,0,0,0.031111111111111114,27.906666666666673,0)" xlink:href="#E"/><use transform="matrix(0.031111111111111114,0,0,0.031111111111111114,45.515555555555565,0)" xlink:href="#v"/><use transform="matrix(0.031111111111111114,0,0,0.031111111111111114,58.39555555555557,0)" xlink:href="#w"/><use transform="matrix(0.031111111111111114,0,0,0.031111111111111114,70.5288888888889,0)" xlink:href="#s"/><use transform="matrix(0.031111111111111114,0,0,0.031111111111111114,78.68000000000002,0)" xlink:href="#u"/></g><path d="M326 19L98-550c-33-83-46-97-110-97v-20h295v20c-119 9-123 22-90 103L375-93l169-442c33-81 34-109-81-112v-20h248v20c-59 1-86 28-118 112L380 19h-54" id="F"/><g id="g"><use transform="matrix(0.031111111111111114,0,0,0.031111111111111114,0,0)" xlink:href="#F"/><use transform="matrix(0.031111111111111114,0,0,0.031111111111111114,19.84888888888889,0)" xlink:href="#y"/><use transform="matrix(0.031111111111111114,0,0,0.031111111111111114,33.63111111111112,0)" xlink:href="#w"/></g><g id="h"><use transform="matrix(0.031111111111111114,0,0,0.031111111111111114,0,0)" xlink:href="#w"/><use transform="matrix(0.031111111111111114,0,0,0.031111111111111114,10.88888888888889,0)" xlink:href="#y"/><use transform="matrix(0.031111111111111114,0,0,0.031111111111111114,25.137777777777778,0)" xlink:href="#t"/><use transform="matrix(0.031111111111111114,0,0,0.031111111111111114,39.10666666666667,0)" xlink:href="#y"/><use transform="matrix(0.031111111111111114,0,0,0.031111111111111114,52.702222222222225,0)" xlink:href="#C"/><use transform="matrix(0.031111111111111114,0,0,0.031111111111111114,63.21777777777778,0)" xlink:href="#v"/><use transform="matrix(0.031111111111111114,0,0,0.031111111111111114,76.31555555555556,0)" xlink:href="#x"/></g><path d="M370-365c102 3 83-14 101-81h20v205h-20c-3-28-8-47-17-62-12-21-20-23-87-23H216v195c0 53 2 66 10 77 16 26 130 15 179 15 78 0 97-5 117-28 17-20 33-55 42-93h20L567 0H-4v-21c45 1 94-3 110-17 17-15 21-26 21-97v-397c0-66-3-79-15-94-15-18-54-23-94-21v-20h515l9 149h-20c-5-39-15-69-27-89-14-23-23-25-92-25H216v267h154" id="G"/><path d="M80-7v-582c-2-74 7-48-44-65l-30-5v-19l129-43h16v362c78-55 125-77 164-77 93 0 174 95 174 206C489-91 381 13 237 13 202 13 133 4 80-7zm91-59c21 31 56 48 97 48 88 0 150-75 150-182s-63-188-146-188c-34 0-71 16-121 51 5 77-13 241 20 271" id="H"/><g id="i"><use transform="matrix(0.031111111111111114,0,0,0.031111111111111114,0,0)" xlink:href="#G"/><use transform="matrix(0.031111111111111114,0,0,0.031111111111111114,19.475555555555555,0)" xlink:href="#x"/><use transform="matrix(0.031111111111111114,0,0,0.031111111111111114,30.177777777777777,0)" xlink:href="#t"/><use transform="matrix(0.031111111111111114,0,0,0.031111111111111114,44.14666666666667,0)" xlink:href="#w"/><use transform="matrix(0.031111111111111114,0,0,0.031111111111111114,56.28,0)" xlink:href="#s"/><use transform="matrix(0.031111111111111114,0,0,0.031111111111111114,64.96000000000001,0)" xlink:href="#H"/><use transform="matrix(0.031111111111111114,0,0,0.031111111111111114,80.98222222222223,0)" xlink:href="#s"/><use transform="matrix(0.031111111111111114,0,0,0.031111111111111114,89.66222222222224,0)" xlink:href="#w"/></g><g id="j"><use transform="matrix(0.031111111111111114,0,0,0.031111111111111114,0,0)" xlink:href="#w"/><use transform="matrix(0.031111111111111114,0,0,0.031111111111111114,10.88888888888889,0)" xlink:href="#y"/><use transform="matrix(0.031111111111111114,0,0,0.031111111111111114,25.137777777777778,0)" xlink:href="#t"/><use transform="matrix(0.031111111111111114,0,0,0.031111111111111114,39.10666666666667,0)" xlink:href="#y"/><use transform="matrix(0.031111111111111114,0,0,0.031111111111111114,52.702222222222225,0)" xlink:href="#C"/><use transform="matrix(0.031111111111111114,0,0,0.031111111111111114,63.21777777777778,0)" xlink:href="#v"/></g><path d="M-77 151c17-9 86 62 110 51 24 0 46-11 60-30 24-34 27-56 27-199v-505c0-76-2-78-16-94s-43-22-82-21v-20h270v20c-73 3-83 20-83 115 0 140 7 401-6 512-20 169-103 272-215 272-59 0-105-25-105-58 0-23 18-43 40-43" id="I"/><g id="k"><use transform="matrix(0.031111111111111114,0,0,0.031111111111111114,0,0)" xlink:href="#I"/><use transform="matrix(0.031111111111111114,0,0,0.031111111111111114,9.706666666666667,0)" xlink:href="#E"/><use transform="matrix(0.031111111111111114,0,0,0.031111111111111114,27.253333333333337,0)" xlink:href="#B"/><use transform="matrix(0.031111111111111114,0,0,0.031111111111111114,42.90222222222223,0)" xlink:href="#v"/><use transform="matrix(0.031111111111111114,0,0,0.031111111111111114,55.78222222222223,0)" xlink:href="#w"/></g><path d="M467-254c0 55-3 144-5 192-1 34 24 43 81 42V0H312v-20c107 2 84-88 84-199 0-79-4-106-17-129-17-29-46-45-83-45-36 0-62 10-125 46v213c0 81 1 81 10 94 10 15 26 20 60 20V0H27v-20c31-1 47-8 60-23 11-13 13-26 13-90v-449c0-55 0-55-6-62-3-9-48-12-68-14v-19l129-44h16v352c87-51 132-68 178-68 98 0 118 61 118 183" id="J"/><g id="l"><use transform="matrix(0.031111111111111114,0,0,0.031111111111111114,0,0)" xlink:href="#v"/><use transform="matrix(0.031111111111111114,0,0,0.031111111111111114,12.88,0)" xlink:href="#J"/><use transform="matrix(0.031111111111111114,0,0,0.031111111111111114,29.83555555555556,0)" xlink:href="#u"/><use transform="matrix(0.031111111111111114,0,0,0.031111111111111114,46.38666666666667,0)" xlink:href="#w"/><use transform="matrix(0.031111111111111114,0,0,0.031111111111111114,57.088888888888896,0)" xlink:href="#t"/><use transform="matrix(0.031111111111111114,0,0,0.031111111111111114,71.05777777777779,0)" xlink:href="#v"/><use transform="matrix(0.031111111111111114,0,0,0.031111111111111114,83.93777777777778,0)" xlink:href="#D"/><use transform="matrix(0.031111111111111114,0,0,0.031111111111111114,100.33333333333334,0)" xlink:href="#u"/></g><path d="M13 0v-20c79-1 88-14 94-115 9-152 27-304 27-457 0-39-16-52-66-55v-20h162l259 542 257-542h158v20c-92 12-73 15-67 97l29 412c6 88 7 89 17 102 11 14 38 16 78 16V0H685v-20c99-5 98-37 91-136l-28-416L479 0h-24L180-572c-9 161-29 320-29 483 0 46 24 66 85 69V0H13" id="K"/><path d="M412-619c-32-21-91-55-126-55-46 0-86 31-104 74-12 27-14 91-14 175h109l7 47H168v250c0 68 2 81 15 93 12 16 69 16 106 15V0H24v-20c28 1 54-5 62-17 10-14 11-25 11-96v-245H18v-18c27-6 58-17 79-29 1-92 16-140 57-193 52-65 118-104 178-104 47 0 111 29 111 50 0 15-22 53-31 53" id="L"/><g id="m"><use transform="matrix(0.031111111111111114,0,0,0.031111111111111114,0,0)" xlink:href="#K"/><use transform="matrix(0.031111111111111114,0,0,0.031111111111111114,30.271111111111114,0)" xlink:href="#u"/><use transform="matrix(0.031111111111111114,0,0,0.031111111111111114,47.13333333333334,0)" xlink:href="#D"/><use transform="matrix(0.031111111111111114,0,0,0.031111111111111114,63.80888888888891,0)" xlink:href="#s"/><use transform="matrix(0.031111111111111114,0,0,0.031111111111111114,72.48888888888891,0)" xlink:href="#L"/><use transform="matrix(0.031111111111111114,0,0,0.031111111111111114,81.54222222222225,0)" xlink:href="#s"/><use transform="matrix(0.031111111111111114,0,0,0.031111111111111114,89.7866666666667,0)" xlink:href="#t"/><use transform="matrix(0.031111111111111114,0,0,0.031111111111111114,103.75555555555559,0)" xlink:href="#v"/><use transform="matrix(0.031111111111111114,0,0,0.031111111111111114,116.63555555555558,0)" xlink:href="#w"/></g><g id="n"><use transform="matrix(0.031111111111111114,0,0,0.031111111111111114,0,0)" xlink:href="#w"/><use transform="matrix(0.031111111111111114,0,0,0.031111111111111114,10.88888888888889,0)" xlink:href="#y"/><use transform="matrix(0.031111111111111114,0,0,0.031111111111111114,25.137777777777778,0)" xlink:href="#t"/><use transform="matrix(0.031111111111111114,0,0,0.031111111111111114,39.10666666666667,0)" xlink:href="#y"/><use transform="matrix(0.031111111111111114,0,0,0.031111111111111114,52.702222222222225,0)" xlink:href="#C"/><use transform="matrix(0.031111111111111114,0,0,0.031111111111111114,63.21777777777778,0)" xlink:href="#v"/></g><path d="M11 0v-20c35 1 61-6 75-22 14-15 14-16 14-95v-434c0-65 0-65-6-72-6-10-55-12-75-16v-18l136-44h16c2 216-4 455 3 664 8 28 34 38 78 37V0H11" id="M"/><path d="M657-436c149-1 101 215 101 367 0 42 30 51 92 49V0H609v-20c49 1 70-7 75-47 4-31 16-253-6-280-13-29-38-46-69-46-33 0-91 25-144 62v197c0 81 1 81 10 94 10 15 27 21 58 20V0H314v-20c29 1 53-8 67-23 21-21 13-159 13-214 0-71-1-79-11-99-11-23-39-38-68-38-33 0-71 16-144 62v198c0 81 1 80 10 94 10 16 29 21 66 20V0H24v-20c28 1 51-8 63-23 24-30 13-175 13-238 0-55-2-64-4-72-3-12-41-20-69-21v-18l128-46h16v86c87-58 148-84 193-84 51 0 89 33 99 85 91-58 152-85 194-85" id="N"/><g id="o"><use transform="matrix(0.031111111111111114,0,0,0.031111111111111114,0,0)" xlink:href="#G"/><use transform="matrix(0.031111111111111114,0,0,0.031111111111111114,19.6,0)" xlink:href="#M"/><use transform="matrix(0.031111111111111114,0,0,0.031111111111111114,27.720000000000002,0)" xlink:href="#s"/><use transform="matrix(0.031111111111111114,0,0,0.031111111111111114,36.400000000000006,0)" xlink:href="#N"/><use transform="matrix(0.031111111111111114,0,0,0.031111111111111114,62.93777777777778,0)" xlink:href="#s"/><use transform="matrix(0.031111111111111114,0,0,0.031111111111111114,71.61777777777779,0)" xlink:href="#r"/><use transform="matrix(0.031111111111111114,0,0,0.031111111111111114,89.44444444444446,0)" xlink:href="#v"/><use transform="matrix(0.031111111111111114,0,0,0.031111111111111114,102.32444444444445,0)" xlink:href="#w"/></g><path d="M40 0v-20c38-3 75-4 79-20 8-12 8-12 8-88v-429c0-60-1-64-11-76-11-13-15-14-67-14H23v-20c247-16 533-47 544 179 7 155-168 235-351 197 3 66-8 201 10 241 12 27 64 33 112 30V0H40zm427-490c0-138-103-189-251-162v341c139 35 251-49 251-179" id="O"/><path d="M125-604c-28 0-47-17-47-42 0-23 20-40 48-40 27 0 47 17 47 41s-20 41-48 41zm-246 798c0-124 90 15 149 15 33 0 62-22 67-63 14-107 5-323 5-450 0-57 0-56-55-67l-29-6v-17l139-48h16v420c0 108-9 151-44 200-34 48-79 72-139 72-59 0-109-26-109-56" id="P"/><g id="p"><use transform="matrix(0.031111111111111114,0,0,0.031111111111111114,0,0)" xlink:href="#O"/><use transform="matrix(0.031111111111111114,0,0,0.031111111111111114,19.102222222222224,0)" xlink:href="#E"/><use transform="matrix(0.031111111111111114,0,0,0.031111111111111114,36.46222222222222,0)" xlink:href="#r"/><use transform="matrix(0.031111111111111114,0,0,0.031111111111111114,53.38666666666667,0)" xlink:href="#C"/><use transform="matrix(0.031111111111111114,0,0,0.031111111111111114,63.90222222222223,0)" xlink:href="#v"/><use transform="matrix(0.031111111111111114,0,0,0.031111111111111114,76.78222222222223,0)" xlink:href="#P"/><use transform="matrix(0.031111111111111114,0,0,0.031111111111111114,84.65333333333335,0)" xlink:href="#y"/><use transform="matrix(0.031111111111111114,0,0,0.031111111111111114,98.77777777777779,0)" xlink:href="#x"/></g></defs></g></svg>